<svg xmlns="http://www.w3.org/2000/svg" viewBox="0 0 720 260" fill="none">
  <defs>
    <linearGradient id="tbg" x1="0" y1="0" x2="720" y2="260">
      <stop offset="0%" stop-color="#ecfdf5"/><stop offset="100%" stop-color="#ede9fe"/>
    </linearGradient>
  </defs>
  <rect width="720" height="260" fill="url(#tbg)" rx="20"/>
  <text x="360" y="32" text-anchor="middle" font-family="system-ui,sans-serif" font-size="16" font-weight="700" fill="#047857">Three Ways Machines Learn</text>
  <!-- Card 1: Supervised -->
  <g transform="translate(20,50)">
    <rect width="215" height="190" rx="16" fill="white" stroke="#86efac" stroke-width="2"/>
    <rect width="215" height="40" rx="16" fill="#ecfdf5"/>
    <text x="28" y="26" font-size="18">📚</text>
    <text x="52" y="27" font-family="system-ui,sans-serif" font-size="13" font-weight="700" fill="#047857">Supervised</text>
    <text x="108" y="72" text-anchor="middle" font-family="system-ui,sans-serif" font-size="11" fill="#374151">"Learning with a teacher"</text>
    <!-- Visual: flashcard -->
    <g transform="translate(30,85)">
      <rect width="60" height="45" rx="6" fill="#f0fdf4" stroke="#86efac"/>
      <text x="30" y="28" text-anchor="middle" font-size="20">🐱</text>
    </g>
    <text x="105" y="112" font-family="system-ui,sans-serif" font-size="14">→</text>
    <g transform="translate(115,85)">
      <rect width="70" height="45" rx="6" fill="#f0fdf4" stroke="#86efac"/>
      <text x="35" y="28" text-anchor="middle" font-family="system-ui,sans-serif" font-size="11" font-weight="600" fill="#047857">"Cat!" ✓</text>
    </g>
    <text x="108" y="160" text-anchor="middle" font-family="system-ui,sans-serif" font-size="10" fill="#6b7280">Example + answer = learning</text>
    <text x="108" y="178" text-anchor="middle" font-family="system-ui,sans-serif" font-size="9" fill="#9ca3af">e.g. Spam filters, face ID</text>
  </g>
  <!-- Card 2: Unsupervised -->
  <g transform="translate(252,50)">
    <rect width="215" height="190" rx="16" fill="white" stroke="#c7d2fe" stroke-width="2"/>
    <rect width="215" height="40" rx="16" fill="#ede9fe"/>
    <text x="28" y="26" font-size="18">🔍</text>
    <text x="52" y="27" font-family="system-ui,sans-serif" font-size="13" font-weight="700" fill="#4338ca">Unsupervised</text>
    <text x="108" y="72" text-anchor="middle" font-family="system-ui,sans-serif" font-size="11" fill="#374151">"Learning by exploring"</text>
    <!-- Visual: sorting -->
    <g transform="translate(25,85)">
      <circle cx="20" cy="20" r="12" fill="#c7d2fe"/><text x="20" y="24" text-anchor="middle" font-size="10">👕</text>
      <circle cx="55" cy="20" r="12" fill="#c7d2fe"/><text x="55" y="24" text-anchor="middle" font-size="10">👖</text>
      <circle cx="90" cy="20" r="12" fill="#fde68a"/><text x="90" y="24" text-anchor="middle" font-size="10">👔</text>
      <circle cx="125" cy="20" r="12" fill="#fde68a"/><text x="125" y="24" text-anchor="middle" font-size="10">👗</text>
      <circle cx="160" cy="20" r="12" fill="#bbf7d0"/><text x="160" y="24" text-anchor="middle" font-size="10">🧥</text>
    </g>
    <text x="108" y="160" text-anchor="middle" font-family="system-ui,sans-serif" font-size="10" fill="#6b7280">Finds hidden groups itself</text>
    <text x="108" y="178" text-anchor="middle" font-family="system-ui,sans-serif" font-size="9" fill="#9ca3af">e.g. Customer segments</text>
  </g>
  <!-- Card 3: Reinforcement -->
  <g transform="translate(484,50)">
    <rect width="215" height="190" rx="16" fill="white" stroke="#fde68a" stroke-width="2"/>
    <rect width="215" height="40" rx="16" fill="#fef3c7"/>
    <text x="28" y="26" font-size="18">🎮</text>
    <text x="52" y="27" font-family="system-ui,sans-serif" font-size="13" font-weight="700" fill="#92400e">Reinforcement</text>
    <text x="108" y="72" text-anchor="middle" font-family="system-ui,sans-serif" font-size="11" fill="#374151">"Learning from trial &amp; error"</text>
    <!-- Visual: reward -->
    <g transform="translate(30,85)">
      <rect width="150" height="45" rx="6" fill="#fef3c7" stroke="#fbbf24"/>
      <text x="20" y="28" font-size="14">🚴</text>
      <text x="45" y="28" font-family="system-ui,sans-serif" font-size="10" fill="#92400e">Fall → adjust →</text>
      <text x="130" y="28" font-size="14">🏆</text>
    </g>
    <text x="108" y="160" text-anchor="middle" font-family="system-ui,sans-serif" font-size="10" fill="#6b7280">Try, fail, improve, repeat</text>
    <text x="108" y="178" text-anchor="middle" font-family="system-ui,sans-serif" font-size="9" fill="#9ca3af">e.g. Game AI, robotics</text>
  </g>
</svg>
